<svg width="111" height="111" viewBox="0 0 111 111" fill="none" xmlns="http://www.w3.org/2000/svg">
<path d="M45.9159 27.2183L26.4757 20.6549L35.8418 9.82542L45.9159 27.2183Z" fill="#FFE01C"/>
<path d="M67.9991 25.0981L87.1667 19.9405L78.0844 8.87198L67.9991 25.0981Z" fill="#FFE01C"/>
<path d="M56.9225 19.1229L48.576 1.53558L62.8844 1.01496L56.9225 19.1229Z" fill="#FFE01C"/>
<path d="M51.2441 26.8613C53.4353 23.3372 58.5647 23.3372 60.7559 26.8613L70.9971 43.333C71.2173 43.6872 71.5677 43.941 71.9727 44.041L90.8027 48.6914C94.8314 49.6863 96.4165 54.5644 93.7422 57.7373L81.2412 72.5674C80.9724 72.8863 80.8382 73.2978 80.8682 73.7139L82.2646 93.0596C82.5634 97.1985 78.4144 100.213 74.5703 98.6504L56.6025 91.3438C56.2163 91.1868 55.7837 91.1868 55.3975 91.3438L37.4297 98.6504C33.5856 100.213 29.4366 97.1985 29.7354 93.0596L31.1318 73.7139C31.1618 73.2978 31.0276 72.8863 30.7588 72.5674L18.2578 57.7373C15.5835 54.5644 17.1686 49.6863 21.1973 48.6914L40.0273 44.041C40.4323 43.941 40.7827 43.6872 41.0029 43.333L51.2441 26.8613Z" fill="#F5994B" stroke="black" stroke-width="4"/>
<mask id="mask0_384_2" style="mask-type:alpha" maskUnits="userSpaceOnUse" x="18" y="26" width="76" height="72">
<path d="M52.9428 27.9171C54.3514 25.6516 57.6486 25.6516 59.0572 27.9171L69.2986 44.3889C69.7942 45.186 70.5815 45.7581 71.4928 45.9831L90.3232 50.6332C92.9131 51.2727 93.932 54.4086 92.2126 56.4484L79.7118 71.2786C79.1068 71.9962 78.8061 72.9218 78.8737 73.858L80.2701 93.2037C80.4622 95.8645 77.7946 97.8026 75.3234 96.7977L57.3561 89.4914C56.4866 89.1379 55.5134 89.1379 54.6439 89.4914L36.6766 96.7977C34.2054 97.8026 31.5378 95.8645 31.7299 93.2037L33.1263 73.858C33.1939 72.9218 32.8932 71.9962 32.2882 71.2786L19.7874 56.4484C18.068 54.4086 19.0869 51.2727 21.6769 50.6332L40.5072 45.9831C41.4185 45.7581 42.2058 45.186 42.7014 44.3889L52.9428 27.9171Z" fill="#F5994B"/>
</mask>
<g mask="url(#mask0_384_2)">
<path d="M56.5 71.4993C48 71.9993 34.5 63.5 25.5 69.9993L26.5 104L85.5 102.5V67.4993C82 62.4993 65 70.9993 56.5 71.4993Z" fill="white" stroke="#E0803B"/>
</g>
<path d="M37.3454 64.7136C36.3756 63.2588 37.5973 61.7636 39.1599 61.0766C40.6921 60.4029 42.801 60.4862 44.0077 61.6843C45.8324 63.496 46.3055 65.9826 44.0077 67.1363C42.7967 67.7443 38.5577 66.532 37.3454 64.7136Z" fill="black"/>
<path d="M40.2644 56.0583C39.0211 54.829 39.2763 52.8576 40.2535 52.4254C41.7842 51.7484 43.2884 51.8302 44.4951 53.0284C45.8006 54.3248 46.3289 56.0583 45.1166 57.2706C44.1584 58.2288 41.4896 57.2698 40.2644 56.0583Z" fill="#FFD1A3"/>
<path d="M71.6282 56.0583C72.8715 54.829 72.6162 52.8576 71.6391 52.4254C70.1084 51.7484 68.6042 51.8302 67.3975 53.0284C66.092 54.3248 65.5637 56.0583 66.776 57.2706C67.7342 58.2288 70.403 57.2698 71.6282 56.0583Z" fill="#FFD1A3"/>
<path d="M74.6546 64.5456C75.6244 63.0909 74.4027 61.5957 72.8401 60.9086C71.3079 60.2349 69.199 60.3182 67.9923 61.5164C66.1676 63.3281 65.6945 65.8146 67.9923 66.9683C69.2033 67.5763 73.4423 66.3641 74.6546 64.5456Z" fill="black"/>
<path d="M52.4958 70.1632C52.9553 68.7829 55.3244 68.9734 56.7388 69.5796C57.3453 68.7712 59.4664 68.3823 60.3756 69.5782C61.5879 71.1728 60.1735 72.7904 59.1633 73.1945C60.1735 74.2047 62.9214 76.3464 65.8309 76.8313C69.4677 77.4375 71.2861 73.1945 71.8923 72.5883C72.4984 71.9822 74.3168 71.9822 73.7107 73.8006C73.1045 75.6191 70.5307 77.8939 67.5 78.5C65.0754 78.9849 59.1633 76.852 57.3449 75.6397C55.3244 77.054 50.7254 79.8824 48.2528 79.8824C42.7975 79.8824 39.774 77.4291 39.1596 76.8313C38.5574 76.2456 39.7681 74.4271 40.978 75.0129C42.1979 75.6035 44.5243 78.6387 47.5 78.064C50.5318 77.4785 53.7069 75.0129 54.9192 73.1945C54.111 72.5885 51.8908 71.9804 52.4958 70.1632Z" fill="black"/>
</svg>
